<mxfile host="app.diagrams.net" modified="2023-03-27T03:31:36.038Z" agent="Mozilla/5.0 (Windows NT 10.0; Win64; x64) AppleWebKit/537.36 (KHTML, like Gecko) Chrome/111.0.0.0 Safari/537.36" etag="IzFKstQxWzcsWvNSdI7Y" version="21.1.1" type="device">
  <diagram id="ZiJ1QPWtikxDmdyrKGaZ" name="Use_Case">
    <mxGraphModel dx="1134" dy="559" grid="1" gridSize="10" guides="1" tooltips="1" connect="1" arrows="1" fold="1" page="1" pageScale="1" pageWidth="850" pageHeight="1100" math="0" shadow="0">
      <root>
        <mxCell id="0" />
        <mxCell id="1" parent="0" />
        <mxCell id="5E4w11CoWnl0UhFc0yHq-3" value="" style="whiteSpace=wrap;html=1;aspect=fixed;" parent="1" vertex="1">
          <mxGeometry x="110" y="110" width="710" height="710" as="geometry" />
        </mxCell>
        <mxCell id="mLHjseE6QlHjcq5zer_h-18" style="rounded=0;orthogonalLoop=1;jettySize=auto;html=1;entryX=0;entryY=0.5;entryDx=0;entryDy=0;endArrow=none;endFill=0;" parent="1" source="mLHjseE6QlHjcq5zer_h-16" edge="1">
          <mxGeometry relative="1" as="geometry">
            <mxPoint x="220" y="330" as="targetPoint" />
          </mxGeometry>
        </mxCell>
        <mxCell id="mLHjseE6QlHjcq5zer_h-16" value="Actor" style="shape=umlActor;verticalLabelPosition=bottom;verticalAlign=top;html=1;" parent="1" vertex="1">
          <mxGeometry x="50" y="300" width="30" height="60" as="geometry" />
        </mxCell>
        <mxCell id="mLHjseE6QlHjcq5zer_h-28" value="Add teacher" style="ellipse;whiteSpace=wrap;html=1;strokeColor=#000000;" parent="1" vertex="1">
          <mxGeometry x="220" y="295" width="140" height="70" as="geometry" />
        </mxCell>
        <mxCell id="5E4w11CoWnl0UhFc0yHq-4" value="&lt;b&gt;Graduation Thesis&lt;/b&gt;" style="text;html=1;strokeColor=none;fillColor=none;align=center;verticalAlign=middle;whiteSpace=wrap;rounded=0;" parent="1" vertex="1">
          <mxGeometry x="390" y="180" width="260" height="80" as="geometry" />
        </mxCell>
        <mxCell id="kSGej7Fw1PN7F8GSMIKp-1" value="Click button add teacher" style="ellipse;whiteSpace=wrap;html=1;" vertex="1" parent="1">
          <mxGeometry x="460" y="290" width="120" height="80" as="geometry" />
        </mxCell>
        <mxCell id="kSGej7Fw1PN7F8GSMIKp-2" value="&amp;lt;&amp;lt;include&amp;gt;&amp;gt;" style="html=1;verticalAlign=bottom;endArrow=open;dashed=1;endSize=8;edgeStyle=elbowEdgeStyle;elbow=vertical;curved=0;rounded=0;exitX=1;exitY=0.5;exitDx=0;exitDy=0;" edge="1" parent="1" source="mLHjseE6QlHjcq5zer_h-28" target="kSGej7Fw1PN7F8GSMIKp-1">
          <mxGeometry relative="1" as="geometry">
            <mxPoint x="385" y="430.33000000000004" as="sourcePoint" />
            <mxPoint x="465" y="430.33000000000004" as="targetPoint" />
          </mxGeometry>
        </mxCell>
        <mxCell id="kSGej7Fw1PN7F8GSMIKp-3" value="Insert Teacher&lt;br&gt;Information" style="ellipse;whiteSpace=wrap;html=1;" vertex="1" parent="1">
          <mxGeometry x="650" y="295" width="120" height="80" as="geometry" />
        </mxCell>
        <mxCell id="kSGej7Fw1PN7F8GSMIKp-4" value="&amp;lt;&amp;lt;include&amp;gt;&amp;gt;" style="html=1;verticalAlign=bottom;endArrow=open;dashed=1;endSize=8;edgeStyle=elbowEdgeStyle;elbow=vertical;curved=0;rounded=0;exitX=1.003;exitY=0.555;exitDx=0;exitDy=0;entryX=0;entryY=0.5;entryDx=0;entryDy=0;exitPerimeter=0;" edge="1" parent="1" source="kSGej7Fw1PN7F8GSMIKp-1" target="kSGej7Fw1PN7F8GSMIKp-3">
          <mxGeometry relative="1" as="geometry">
            <mxPoint x="370" y="340" as="sourcePoint" />
            <mxPoint x="470" y="340" as="targetPoint" />
          </mxGeometry>
        </mxCell>
        <mxCell id="kSGej7Fw1PN7F8GSMIKp-5" value="CheckValidate" style="ellipse;whiteSpace=wrap;html=1;" vertex="1" parent="1">
          <mxGeometry x="650" y="410" width="120" height="80" as="geometry" />
        </mxCell>
        <mxCell id="kSGej7Fw1PN7F8GSMIKp-6" value="Add" style="ellipse;whiteSpace=wrap;html=1;" vertex="1" parent="1">
          <mxGeometry x="650" y="530" width="120" height="80" as="geometry" />
        </mxCell>
        <mxCell id="kSGej7Fw1PN7F8GSMIKp-7" value="&amp;lt;&amp;lt;include&amp;gt;&amp;gt;" style="html=1;verticalAlign=bottom;endArrow=open;dashed=1;endSize=8;edgeStyle=elbowEdgeStyle;elbow=vertical;curved=0;rounded=0;exitX=0.5;exitY=1;exitDx=0;exitDy=0;" edge="1" parent="1" source="kSGej7Fw1PN7F8GSMIKp-3" target="kSGej7Fw1PN7F8GSMIKp-5">
          <mxGeometry x="0.4286" y="-40" relative="1" as="geometry">
            <mxPoint x="590" y="344" as="sourcePoint" />
            <mxPoint x="660" y="345" as="targetPoint" />
            <mxPoint as="offset" />
          </mxGeometry>
        </mxCell>
        <mxCell id="kSGej7Fw1PN7F8GSMIKp-8" value="&amp;lt;&amp;lt;include&amp;gt;&amp;gt;" style="html=1;verticalAlign=bottom;endArrow=open;dashed=1;endSize=8;edgeStyle=elbowEdgeStyle;elbow=vertical;curved=0;rounded=0;exitX=0.5;exitY=1;exitDx=0;exitDy=0;entryX=0.5;entryY=0;entryDx=0;entryDy=0;" edge="1" parent="1" target="kSGej7Fw1PN7F8GSMIKp-6">
          <mxGeometry x="0.4286" y="-40" relative="1" as="geometry">
            <mxPoint x="709.86" y="490" as="sourcePoint" />
            <mxPoint x="709.86" y="525" as="targetPoint" />
            <mxPoint as="offset" />
          </mxGeometry>
        </mxCell>
        <mxCell id="kSGej7Fw1PN7F8GSMIKp-11" value="" style="whiteSpace=wrap;html=1;aspect=fixed;" vertex="1" parent="1">
          <mxGeometry x="920" y="110" width="710" height="710" as="geometry" />
        </mxCell>
        <mxCell id="kSGej7Fw1PN7F8GSMIKp-12" style="rounded=0;orthogonalLoop=1;jettySize=auto;html=1;entryX=0;entryY=0.5;entryDx=0;entryDy=0;endArrow=none;endFill=0;" edge="1" parent="1" source="kSGej7Fw1PN7F8GSMIKp-13">
          <mxGeometry relative="1" as="geometry">
            <mxPoint x="1040" y="200" as="targetPoint" />
          </mxGeometry>
        </mxCell>
        <mxCell id="kSGej7Fw1PN7F8GSMIKp-13" value="Actor" style="shape=umlActor;verticalLabelPosition=bottom;verticalAlign=top;html=1;" vertex="1" parent="1">
          <mxGeometry x="870" y="170" width="30" height="60" as="geometry" />
        </mxCell>
        <mxCell id="kSGej7Fw1PN7F8GSMIKp-14" value="Update Teacher" style="ellipse;whiteSpace=wrap;html=1;strokeColor=#000000;" vertex="1" parent="1">
          <mxGeometry x="1040" y="165" width="140" height="70" as="geometry" />
        </mxCell>
        <mxCell id="kSGej7Fw1PN7F8GSMIKp-16" value="Click button add teacher" style="ellipse;whiteSpace=wrap;html=1;" vertex="1" parent="1">
          <mxGeometry x="1280" y="160" width="120" height="80" as="geometry" />
        </mxCell>
        <mxCell id="kSGej7Fw1PN7F8GSMIKp-17" value="&amp;lt;&amp;lt;include&amp;gt;&amp;gt;" style="html=1;verticalAlign=bottom;endArrow=open;dashed=1;endSize=8;edgeStyle=elbowEdgeStyle;elbow=vertical;curved=0;rounded=0;exitX=1;exitY=0.5;exitDx=0;exitDy=0;" edge="1" parent="1" source="kSGej7Fw1PN7F8GSMIKp-14" target="kSGej7Fw1PN7F8GSMIKp-16">
          <mxGeometry relative="1" as="geometry">
            <mxPoint x="1205" y="300.3299999999999" as="sourcePoint" />
            <mxPoint x="1285" y="300.3299999999999" as="targetPoint" />
          </mxGeometry>
        </mxCell>
        <mxCell id="kSGej7Fw1PN7F8GSMIKp-22" value="&amp;lt;&amp;lt;include&amp;gt;&amp;gt;" style="html=1;verticalAlign=bottom;endArrow=open;dashed=1;endSize=8;edgeStyle=elbowEdgeStyle;elbow=vertical;curved=0;rounded=0;exitX=0.5;exitY=1;exitDx=0;exitDy=0;" edge="1" parent="1" target="kSGej7Fw1PN7F8GSMIKp-20">
          <mxGeometry x="0.4286" y="-40" relative="1" as="geometry">
            <mxPoint x="720" y="1260" as="sourcePoint" />
            <mxPoint x="650" y="1125" as="targetPoint" />
            <mxPoint as="offset" />
          </mxGeometry>
        </mxCell>
        <mxCell id="kSGej7Fw1PN7F8GSMIKp-24" value="Check Old Teacher&lt;br&gt;Information" style="ellipse;whiteSpace=wrap;html=1;" vertex="1" parent="1">
          <mxGeometry x="1480" y="160" width="120" height="80" as="geometry" />
        </mxCell>
        <mxCell id="kSGej7Fw1PN7F8GSMIKp-25" value="Click on the information you want to change" style="ellipse;whiteSpace=wrap;html=1;" vertex="1" parent="1">
          <mxGeometry x="1480" y="290" width="120" height="80" as="geometry" />
        </mxCell>
        <mxCell id="kSGej7Fw1PN7F8GSMIKp-26" value="CheckValidate" style="ellipse;whiteSpace=wrap;html=1;" vertex="1" parent="1">
          <mxGeometry x="1250" y="290" width="120" height="80" as="geometry" />
        </mxCell>
        <mxCell id="kSGej7Fw1PN7F8GSMIKp-27" value="save" style="ellipse;whiteSpace=wrap;html=1;" vertex="1" parent="1">
          <mxGeometry x="1050" y="290" width="120" height="80" as="geometry" />
        </mxCell>
        <mxCell id="kSGej7Fw1PN7F8GSMIKp-28" value="&amp;lt;&amp;lt;include&amp;gt;&amp;gt;" style="html=1;verticalAlign=bottom;endArrow=open;dashed=1;endSize=8;edgeStyle=elbowEdgeStyle;elbow=vertical;curved=0;rounded=0;exitX=1;exitY=0.5;exitDx=0;exitDy=0;entryX=0;entryY=0.5;entryDx=0;entryDy=0;" edge="1" parent="1" source="kSGej7Fw1PN7F8GSMIKp-16" target="kSGej7Fw1PN7F8GSMIKp-24">
          <mxGeometry relative="1" as="geometry">
            <mxPoint x="1190" y="210" as="sourcePoint" />
            <mxPoint x="1290" y="210" as="targetPoint" />
          </mxGeometry>
        </mxCell>
        <mxCell id="kSGej7Fw1PN7F8GSMIKp-29" value="&amp;lt;&amp;lt;include&amp;gt;&amp;gt;" style="html=1;verticalAlign=bottom;endArrow=open;dashed=1;endSize=8;edgeStyle=elbowEdgeStyle;elbow=vertical;curved=0;rounded=0;exitX=0.5;exitY=1;exitDx=0;exitDy=0;entryX=0.5;entryY=0;entryDx=0;entryDy=0;" edge="1" parent="1" source="kSGej7Fw1PN7F8GSMIKp-24" target="kSGej7Fw1PN7F8GSMIKp-25">
          <mxGeometry x="0.2" y="-40" relative="1" as="geometry">
            <mxPoint x="1410" y="210" as="sourcePoint" />
            <mxPoint x="1490" y="210" as="targetPoint" />
            <mxPoint as="offset" />
          </mxGeometry>
        </mxCell>
        <mxCell id="kSGej7Fw1PN7F8GSMIKp-30" value="&amp;lt;&amp;lt;include&amp;gt;&amp;gt;" style="html=1;verticalAlign=bottom;endArrow=open;dashed=1;endSize=8;edgeStyle=elbowEdgeStyle;elbow=vertical;curved=0;rounded=0;exitX=0;exitY=0.5;exitDx=0;exitDy=0;entryX=1;entryY=0.5;entryDx=0;entryDy=0;" edge="1" parent="1" source="kSGej7Fw1PN7F8GSMIKp-25" target="kSGej7Fw1PN7F8GSMIKp-26">
          <mxGeometry x="-0.0906" relative="1" as="geometry">
            <mxPoint x="1550" y="250" as="sourcePoint" />
            <mxPoint x="1550" y="300" as="targetPoint" />
            <mxPoint as="offset" />
          </mxGeometry>
        </mxCell>
        <mxCell id="kSGej7Fw1PN7F8GSMIKp-31" value="&amp;lt;&amp;lt;include&amp;gt;&amp;gt;" style="html=1;verticalAlign=bottom;endArrow=open;dashed=1;endSize=8;edgeStyle=elbowEdgeStyle;elbow=vertical;curved=0;rounded=0;exitX=0;exitY=0.5;exitDx=0;exitDy=0;entryX=1;entryY=0.5;entryDx=0;entryDy=0;" edge="1" parent="1" source="kSGej7Fw1PN7F8GSMIKp-26" target="kSGej7Fw1PN7F8GSMIKp-27">
          <mxGeometry x="-0.0906" relative="1" as="geometry">
            <mxPoint x="1490" y="340" as="sourcePoint" />
            <mxPoint x="1380" y="340" as="targetPoint" />
            <mxPoint as="offset" />
          </mxGeometry>
        </mxCell>
        <mxCell id="kSGej7Fw1PN7F8GSMIKp-33" value="&lt;b&gt;Graduation Thesis&lt;/b&gt;" style="text;html=1;strokeColor=none;fillColor=none;align=center;verticalAlign=middle;whiteSpace=wrap;rounded=0;" vertex="1" parent="1">
          <mxGeometry x="1150" y="100" width="260" height="80" as="geometry" />
        </mxCell>
        <mxCell id="kSGej7Fw1PN7F8GSMIKp-34" value="Add teacher" style="text;html=1;align=center;verticalAlign=middle;resizable=0;points=[];autosize=1;strokeColor=none;fillColor=none;fontSize=11;fontFamily=Helvetica;fontColor=default;" vertex="1" parent="1">
          <mxGeometry x="120" y="110" width="80" height="30" as="geometry" />
        </mxCell>
        <mxCell id="kSGej7Fw1PN7F8GSMIKp-35" value="Update teacher" style="text;html=1;align=center;verticalAlign=middle;resizable=0;points=[];autosize=1;strokeColor=none;fillColor=none;fontSize=11;fontFamily=Helvetica;fontColor=default;" vertex="1" parent="1">
          <mxGeometry x="910" y="110" width="100" height="30" as="geometry" />
        </mxCell>
      </root>
    </mxGraphModel>
  </diagram>
</mxfile>
